<?xml version="1.0" encoding="UTF-8"?>
<svg xmlns="http://www.w3.org/2000/svg" xmlns:xlink="http://www.w3.org/1999/xlink" width="375pt" height="374.999991pt" viewBox="0 0 375 374.999991" version="1.2">
<defs>
<clipPath id="clip1">
  <path d="M 21 20.589844 L 355 20.589844 L 355 353.863281 L 21 353.863281 Z M 21 20.589844 "/>
</clipPath>
<clipPath id="clip2">
  <path d="M 64.5 101.625 L 303 101.625 L 303 205.125 L 64.5 205.125 Z M 64.5 101.625 "/>
</clipPath>
<clipPath id="clip3">
  <path d="M 291.75 79.875 L 315.75 79.875 L 315.75 144.375 L 291.75 144.375 Z M 291.75 79.875 "/>
</clipPath>
<clipPath id="clip4">
  <path d="M 223.5 63.75 L 268.5 63.75 L 268.5 114.75 L 223.5 114.75 Z M 223.5 63.75 "/>
</clipPath>
<clipPath id="clip5">
  <path d="M 177 63.75 L 202.5 63.75 L 202.5 101.25 L 177 101.25 Z M 177 63.75 "/>
</clipPath>
<clipPath id="clip6">
  <path d="M 131.992188 202.023438 L 245.242188 202.023438 L 245.242188 236.523438 L 131.992188 236.523438 Z M 131.992188 202.023438 "/>
</clipPath>
<clipPath id="clip7">
  <path d="M 101.65625 203.3125 L 145.90625 203.3125 L 145.90625 224.3125 L 101.65625 224.3125 Z M 101.65625 203.3125 "/>
</clipPath>
<clipPath id="clip8">
  <path d="M 20 63.476562 L 356.25 63.476562 L 356.25 233.726562 L 20 233.726562 Z M 20 63.476562 "/>
</clipPath>
</defs>
<g id="surface1">
<g clip-path="url(#clip1)" clip-rule="nonzero">
<path style=" stroke:none;fill-rule:nonzero;fill:rgb(0%,0%,0%);fill-opacity:1;" d="M 135.648438 354.085938 C 131.339844 354.085938 127.296875 352.410156 124.25 349.367188 L 123.101562 348.222656 L 91.953125 286.945312 L 88.691406 283.691406 L 27.289062 252.609375 L 26.140625 251.457031 C 19.863281 245.1875 19.863281 234.992188 26.140625 228.730469 L 47.621094 207.285156 L 101.496094 221.199219 C 103.9375 217.488281 106.789062 213.992188 110.027344 210.746094 L 153.554688 163.625 L 30.046875 95.785156 L 29.019531 94.761719 C 25.613281 91.363281 23.742188 86.847656 23.738281 82.046875 C 23.738281 77.238281 25.609375 72.71875 29.015625 69.324219 L 61.15625 37.246094 L 225.785156 86.425781 L 273.65625 35.367188 C 283.222656 25.824219 295.765625 20.570312 308.984375 20.570312 C 321.398438 20.570312 332.964844 25.292969 341.550781 33.871094 C 350.496094 42.792969 355.222656 54.820312 354.859375 67.722656 C 354.503906 80.414062 349.246094 92.460938 340.046875 101.636719 L 289.292969 149.027344 L 338.898438 314.4375 L 306.757812 346.511719 C 303.355469 349.910156 298.828125 351.78125 294.015625 351.78125 C 289.203125 351.78125 284.675781 349.910156 281.269531 346.507812 L 280.242188 345.484375 L 279.542969 344.210938 L 211.746094 221.285156 L 164.316406 264.929688 C 161.203125 268.015625 157.855469 270.757812 154.300781 273.125 L 168.515625 327.941406 L 147.035156 349.382812 C 143.992188 352.414062 139.949219 354.085938 135.648438 354.085938 Z M 45.027344 238.722656 L 100.839844 266.976562 L 108.703125 274.824219 L 137.027344 330.535156 L 145.808594 321.769531 L 130.496094 262.722656 L 137.957031 259.054688 C 142.339844 256.902344 146.398438 253.976562 150.019531 250.359375 L 150.320312 250.070312 L 217.082031 188.652344 L 294.8125 329.597656 L 315.828125 308.621094 L 266.085938 142.769531 L 325.84375 86.980469 C 331.085938 81.738281 334.222656 74.617188 334.429688 67.15625 C 334.636719 59.910156 332.03125 53.210938 327.101562 48.289062 C 322.367188 43.566406 315.9375 40.964844 308.980469 40.964844 C 301.269531 40.964844 293.902344 44.058594 288.210938 49.679688 L 232.054688 109.589844 L 66.976562 60.28125 L 45.957031 81.257812 L 186.25 158.316406 L 124.625 225.019531 C 120.875 228.761719 117.882812 232.941406 115.71875 237.4375 L 112.085938 245.003906 L 53.808594 229.957031 Z M 45.027344 238.722656 "/>
</g>
<g clip-path="url(#clip2)" clip-rule="nonzero">
<path style=" stroke:none;fill-rule:nonzero;fill:rgb(100%,100%,100%);fill-opacity:1;" d="M 135.652344 354.5625 C 131.347656 354.5625 127.308594 352.886719 124.265625 349.839844 L 123.121094 348.695312 L 92.003906 287.351562 L 88.75 284.097656 L 27.417969 252.980469 L 26.265625 251.828125 C 19.996094 245.554688 19.996094 235.347656 26.265625 229.078125 L 47.726562 207.613281 L 101.535156 221.542969 C 103.976562 217.828125 106.824219 214.324219 110.058594 211.078125 L 153.535156 163.90625 L 30.167969 96 L 29.144531 94.972656 C 25.742188 91.574219 23.871094 87.050781 23.867188 82.246094 C 23.867188 77.433594 25.738281 72.910156 29.140625 69.511719 L 61.242188 37.402344 L 225.683594 86.628906 L 273.496094 35.519531 C 283.050781 25.964844 295.582031 20.707031 308.785156 20.707031 C 321.183594 20.707031 332.738281 25.4375 341.316406 34.019531 C 350.25 42.953125 354.972656 54.988281 354.605469 67.90625 C 354.253906 80.613281 349 92.667969 339.8125 101.855469 L 289.117188 149.292969 L 338.667969 314.871094 L 306.5625 346.980469 C 303.164062 350.378906 298.640625 352.253906 293.835938 352.253906 C 289.027344 352.253906 284.503906 350.378906 281.105469 346.976562 L 280.078125 345.953125 L 279.378906 344.679688 L 211.660156 221.625 L 164.285156 265.3125 C 161.175781 268.402344 157.832031 271.148438 154.28125 273.519531 L 168.480469 328.394531 L 147.023438 349.851562 C 143.984375 352.886719 139.949219 354.5625 135.652344 354.5625 Z M 45.132812 239.082031 L 100.882812 267.363281 L 108.738281 275.222656 L 137.027344 330.988281 L 145.796875 322.214844 L 130.503906 263.105469 L 137.953125 259.433594 C 142.332031 257.277344 146.386719 254.351562 150.007812 250.730469 L 150.304688 250.441406 L 216.988281 188.960938 L 294.628906 330.050781 L 315.625 309.050781 L 265.933594 143.03125 L 325.625 87.183594 C 330.863281 81.9375 333.996094 74.808594 334.203125 67.339844 C 334.40625 60.085938 331.804688 53.378906 326.882812 48.453125 C 322.15625 43.726562 315.730469 41.121094 308.78125 41.121094 C 301.082031 41.121094 293.71875 44.21875 288.035156 49.847656 L 231.945312 109.820312 L 67.054688 60.457031 L 46.0625 81.457031 L 186.195312 158.59375 L 124.640625 225.363281 C 120.894531 229.113281 117.90625 233.292969 115.746094 237.792969 L 112.113281 245.371094 L 53.90625 230.304688 Z M 45.132812 239.082031 "/>
</g>
<g clip-path="url(#clip3)" clip-rule="nonzero">
<path style=" stroke:none;fill-rule:nonzero;fill:rgb(100%,100%,100%);fill-opacity:1;" d="M 135.652344 354.5625 C 131.347656 354.5625 127.308594 352.886719 124.265625 349.839844 L 123.121094 348.695312 L 92.003906 287.351562 L 88.75 284.097656 L 27.417969 252.980469 L 26.265625 251.828125 C 19.996094 245.554688 19.996094 235.347656 26.265625 229.078125 L 47.726562 207.613281 L 101.535156 221.542969 C 103.976562 217.828125 106.824219 214.324219 110.058594 211.078125 L 153.535156 163.90625 L 30.167969 96 L 29.144531 94.972656 C 25.742188 91.574219 23.871094 87.050781 23.867188 82.246094 C 23.867188 77.433594 25.738281 72.910156 29.140625 69.511719 L 61.242188 37.402344 L 225.683594 86.628906 L 273.496094 35.519531 C 283.050781 25.964844 295.582031 20.707031 308.785156 20.707031 C 321.183594 20.707031 332.738281 25.4375 341.316406 34.019531 C 350.25 42.953125 354.972656 54.988281 354.605469 67.90625 C 354.253906 80.613281 349 92.667969 339.8125 101.855469 L 289.117188 149.292969 L 338.667969 314.871094 L 306.5625 346.980469 C 303.164062 350.378906 298.640625 352.253906 293.835938 352.253906 C 289.027344 352.253906 284.503906 350.378906 281.105469 346.976562 L 280.078125 345.953125 L 279.378906 344.679688 L 211.660156 221.625 L 164.285156 265.3125 C 161.175781 268.402344 157.832031 271.148438 154.28125 273.519531 L 168.480469 328.394531 L 147.023438 349.851562 C 143.984375 352.886719 139.949219 354.5625 135.652344 354.5625 Z M 45.132812 239.082031 L 100.882812 267.363281 L 108.738281 275.222656 L 137.027344 330.988281 L 145.796875 322.214844 L 130.503906 263.105469 L 137.953125 259.433594 C 142.332031 257.277344 146.386719 254.351562 150.007812 250.730469 L 150.304688 250.441406 L 216.988281 188.960938 L 294.628906 330.050781 L 315.625 309.050781 L 265.933594 143.03125 L 325.625 87.183594 C 330.863281 81.9375 333.996094 74.808594 334.203125 67.339844 C 334.40625 60.085938 331.804688 53.378906 326.882812 48.453125 C 322.15625 43.726562 315.730469 41.121094 308.78125 41.121094 C 301.082031 41.121094 293.71875 44.21875 288.035156 49.847656 L 231.945312 109.820312 L 67.054688 60.457031 L 46.0625 81.457031 L 186.195312 158.59375 L 124.640625 225.363281 C 120.894531 229.113281 117.90625 233.292969 115.746094 237.792969 L 112.113281 245.371094 L 53.90625 230.304688 Z M 45.132812 239.082031 "/>
</g>
<g clip-path="url(#clip4)" clip-rule="nonzero">
<path style=" stroke:none;fill-rule:nonzero;fill:rgb(100%,100%,100%);fill-opacity:1;" d="M 135.652344 354.5625 C 131.347656 354.5625 127.308594 352.886719 124.265625 349.839844 L 123.121094 348.695312 L 92.003906 287.351562 L 88.75 284.097656 L 27.417969 252.980469 L 26.265625 251.828125 C 19.996094 245.554688 19.996094 235.347656 26.265625 229.078125 L 47.726562 207.613281 L 101.535156 221.542969 C 103.976562 217.828125 106.824219 214.324219 110.058594 211.078125 L 153.535156 163.90625 L 30.167969 96 L 29.144531 94.972656 C 25.742188 91.574219 23.871094 87.050781 23.867188 82.246094 C 23.867188 77.433594 25.738281 72.910156 29.140625 69.511719 L 61.242188 37.402344 L 225.683594 86.628906 L 273.496094 35.519531 C 283.050781 25.964844 295.582031 20.707031 308.785156 20.707031 C 321.183594 20.707031 332.738281 25.4375 341.316406 34.019531 C 350.25 42.953125 354.972656 54.988281 354.605469 67.90625 C 354.253906 80.613281 349 92.667969 339.8125 101.855469 L 289.117188 149.292969 L 338.667969 314.871094 L 306.5625 346.980469 C 303.164062 350.378906 298.640625 352.253906 293.835938 352.253906 C 289.027344 352.253906 284.503906 350.378906 281.105469 346.976562 L 280.078125 345.953125 L 279.378906 344.679688 L 211.660156 221.625 L 164.285156 265.3125 C 161.175781 268.402344 157.832031 271.148438 154.28125 273.519531 L 168.480469 328.394531 L 147.023438 349.851562 C 143.984375 352.886719 139.949219 354.5625 135.652344 354.5625 Z M 45.132812 239.082031 L 100.882812 267.363281 L 108.738281 275.222656 L 137.027344 330.988281 L 145.796875 322.214844 L 130.503906 263.105469 L 137.953125 259.433594 C 142.332031 257.277344 146.386719 254.351562 150.007812 250.730469 L 150.304688 250.441406 L 216.988281 188.960938 L 294.628906 330.050781 L 315.625 309.050781 L 265.933594 143.03125 L 325.625 87.183594 C 330.863281 81.9375 333.996094 74.808594 334.203125 67.339844 C 334.40625 60.085938 331.804688 53.378906 326.882812 48.453125 C 322.15625 43.726562 315.730469 41.121094 308.78125 41.121094 C 301.082031 41.121094 293.71875 44.21875 288.035156 49.847656 L 231.945312 109.820312 L 67.054688 60.457031 L 46.0625 81.457031 L 186.195312 158.59375 L 124.640625 225.363281 C 120.894531 229.113281 117.90625 233.292969 115.746094 237.792969 L 112.113281 245.371094 L 53.90625 230.304688 Z M 45.132812 239.082031 "/>
</g>
<g clip-path="url(#clip5)" clip-rule="nonzero">
<path style=" stroke:none;fill-rule:nonzero;fill:rgb(100%,100%,100%);fill-opacity:1;" d="M 135.652344 354.5625 C 131.347656 354.5625 127.308594 352.886719 124.265625 349.839844 L 123.121094 348.695312 L 92.003906 287.351562 L 88.75 284.097656 L 27.417969 252.980469 L 26.265625 251.828125 C 19.996094 245.554688 19.996094 235.347656 26.265625 229.078125 L 47.726562 207.613281 L 101.535156 221.542969 C 103.976562 217.828125 106.824219 214.324219 110.058594 211.078125 L 153.535156 163.90625 L 30.167969 96 L 29.144531 94.972656 C 25.742188 91.574219 23.871094 87.050781 23.867188 82.246094 C 23.867188 77.433594 25.738281 72.910156 29.140625 69.511719 L 61.242188 37.402344 L 225.683594 86.628906 L 273.496094 35.519531 C 283.050781 25.964844 295.582031 20.707031 308.785156 20.707031 C 321.183594 20.707031 332.738281 25.4375 341.316406 34.019531 C 350.25 42.953125 354.972656 54.988281 354.605469 67.90625 C 354.253906 80.613281 349 92.667969 339.8125 101.855469 L 289.117188 149.292969 L 338.667969 314.871094 L 306.5625 346.980469 C 303.164062 350.378906 298.640625 352.253906 293.835938 352.253906 C 289.027344 352.253906 284.503906 350.378906 281.105469 346.976562 L 280.078125 345.953125 L 279.378906 344.679688 L 211.660156 221.625 L 164.285156 265.3125 C 161.175781 268.402344 157.832031 271.148438 154.28125 273.519531 L 168.480469 328.394531 L 147.023438 349.851562 C 143.984375 352.886719 139.949219 354.5625 135.652344 354.5625 Z M 45.132812 239.082031 L 100.882812 267.363281 L 108.738281 275.222656 L 137.027344 330.988281 L 145.796875 322.214844 L 130.503906 263.105469 L 137.953125 259.433594 C 142.332031 257.277344 146.386719 254.351562 150.007812 250.730469 L 150.304688 250.441406 L 216.988281 188.960938 L 294.628906 330.050781 L 315.625 309.050781 L 265.933594 143.03125 L 325.625 87.183594 C 330.863281 81.9375 333.996094 74.808594 334.203125 67.339844 C 334.40625 60.085938 331.804688 53.378906 326.882812 48.453125 C 322.15625 43.726562 315.730469 41.121094 308.78125 41.121094 C 301.082031 41.121094 293.71875 44.21875 288.035156 49.847656 L 231.945312 109.820312 L 67.054688 60.457031 L 46.0625 81.457031 L 186.195312 158.59375 L 124.640625 225.363281 C 120.894531 229.113281 117.90625 233.292969 115.746094 237.792969 L 112.113281 245.371094 L 53.90625 230.304688 Z M 45.132812 239.082031 "/>
</g>
<g clip-path="url(#clip6)" clip-rule="nonzero">
<path style=" stroke:none;fill-rule:nonzero;fill:rgb(100%,100%,100%);fill-opacity:1;" d="M 135.652344 354.9375 C 131.347656 354.9375 127.308594 353.261719 124.265625 350.214844 L 123.121094 349.070312 L 92.003906 287.726562 L 88.75 284.472656 L 27.417969 253.355469 L 26.265625 252.203125 C 19.996094 245.929688 19.996094 235.722656 26.265625 229.453125 L 47.726562 207.988281 L 101.535156 221.917969 C 103.976562 218.203125 106.824219 214.699219 110.058594 211.453125 L 153.535156 164.28125 L 30.167969 96.375 L 29.144531 95.347656 C 25.742188 91.949219 23.871094 87.425781 23.867188 82.621094 C 23.867188 77.808594 25.738281 73.285156 29.140625 69.886719 L 61.242188 37.777344 L 225.683594 87.003906 L 273.496094 35.894531 C 283.050781 26.339844 295.582031 21.082031 308.785156 21.082031 C 321.183594 21.082031 332.738281 25.8125 341.316406 34.394531 C 350.25 43.328125 354.972656 55.363281 354.605469 68.28125 C 354.253906 80.988281 349 93.042969 339.8125 102.230469 L 289.117188 149.667969 L 338.667969 315.246094 L 306.5625 347.355469 C 303.164062 350.753906 298.640625 352.628906 293.835938 352.628906 C 289.027344 352.628906 284.503906 350.753906 281.105469 347.351562 L 280.078125 346.328125 L 279.378906 345.054688 L 211.660156 222 L 164.285156 265.6875 C 161.175781 268.777344 157.832031 271.523438 154.28125 273.894531 L 168.480469 328.769531 L 147.023438 350.226562 C 143.984375 353.261719 139.949219 354.9375 135.652344 354.9375 Z M 45.132812 239.457031 L 100.882812 267.738281 L 108.738281 275.597656 L 137.027344 331.363281 L 145.796875 322.589844 L 130.503906 263.480469 L 137.953125 259.808594 C 142.332031 257.652344 146.386719 254.726562 150.007812 251.105469 L 150.304688 250.816406 L 216.988281 189.335938 L 294.628906 330.425781 L 315.625 309.425781 L 265.933594 143.40625 L 325.625 87.558594 C 330.863281 82.3125 333.996094 75.183594 334.203125 67.714844 C 334.40625 60.460938 331.804688 53.753906 326.882812 48.828125 C 322.15625 44.101562 315.730469 41.496094 308.78125 41.496094 C 301.082031 41.496094 293.71875 44.59375 288.035156 50.222656 L 231.945312 110.195312 L 67.054688 60.832031 L 46.0625 81.832031 L 186.195312 158.96875 L 124.640625 225.738281 C 120.894531 229.488281 117.90625 233.667969 115.746094 238.167969 L 112.113281 245.746094 L 53.90625 230.679688 Z M 45.132812 239.457031 "/>
</g>
<g clip-path="url(#clip7)" clip-rule="nonzero">
<path style=" stroke:none;fill-rule:nonzero;fill:rgb(100%,100%,100%);fill-opacity:1;" d="M 134.683594 354.9375 C 130.378906 354.9375 126.339844 353.261719 123.296875 350.214844 L 122.152344 349.070312 L 91.035156 287.726562 L 87.78125 284.472656 L 26.449219 253.355469 L 25.300781 252.203125 C 19.03125 245.929688 19.03125 235.722656 25.300781 229.453125 L 46.757812 207.988281 L 100.566406 221.917969 C 103.007812 218.203125 105.855469 214.699219 109.089844 211.453125 L 152.566406 164.28125 L 29.199219 96.375 L 28.175781 95.347656 C 24.773438 91.949219 22.902344 87.425781 22.902344 82.621094 C 22.902344 77.808594 24.773438 73.285156 28.171875 69.886719 L 60.273438 37.777344 L 224.714844 87.003906 L 272.527344 35.894531 C 282.085938 26.339844 294.613281 21.082031 307.816406 21.082031 C 320.21875 21.082031 331.769531 25.8125 340.347656 34.394531 C 349.28125 43.328125 354.003906 55.363281 353.640625 68.28125 C 353.285156 80.988281 348.03125 93.042969 338.84375 102.230469 L 288.148438 149.667969 L 337.699219 315.246094 L 305.59375 347.355469 C 302.195312 350.753906 297.675781 352.628906 292.867188 352.628906 C 288.058594 352.628906 283.535156 350.753906 280.136719 347.351562 L 279.109375 346.328125 L 278.410156 345.054688 L 210.695312 222 L 163.316406 265.6875 C 160.207031 268.777344 156.863281 271.523438 153.3125 273.894531 L 167.511719 328.769531 L 146.054688 350.226562 C 143.015625 353.261719 138.980469 354.9375 134.683594 354.9375 Z M 44.164062 239.457031 L 99.914062 267.738281 L 107.769531 275.597656 L 136.058594 331.363281 L 144.832031 322.589844 L 129.535156 263.480469 L 136.984375 259.808594 C 141.363281 257.652344 145.417969 254.726562 149.039062 251.105469 L 149.335938 250.816406 L 216.019531 189.335938 L 293.660156 330.425781 L 314.65625 309.425781 L 264.96875 143.40625 L 324.65625 87.558594 C 329.894531 82.3125 333.027344 75.183594 333.234375 67.714844 C 333.441406 60.460938 330.835938 53.753906 325.914062 48.828125 C 321.1875 44.101562 314.761719 41.496094 307.816406 41.496094 C 300.113281 41.496094 292.753906 44.59375 287.066406 50.222656 L 230.976562 110.195312 L 66.089844 60.832031 L 45.09375 81.832031 L 185.226562 158.96875 L 123.671875 225.738281 C 119.925781 229.488281 116.9375 233.667969 114.777344 238.167969 L 111.148438 245.746094 L 52.9375 230.679688 Z M 44.164062 239.457031 "/>
</g>
<g clip-path="url(#clip8)" clip-rule="nonzero">
<path style=" stroke:none;fill-rule:nonzero;fill:rgb(0%,0%,0%);fill-opacity:1;" d="M 351.945312 158.1875 C 346.976562 154.367188 341.9375 150.816406 336.832031 147.398438 L 349.191406 140.226562 C 354.226562 137.277344 355.972656 130.773438 353.019531 125.746094 C 350.0625 120.71875 343.550781 118.976562 338.511719 121.925781 L 316.550781 134.660156 C 310.976562 131.445312 305.402344 128.496094 299.828125 125.746094 L 313.730469 109.191406 C 317.492188 104.699219 316.886719 98.0625 312.386719 94.242188 C 307.886719 90.492188 301.238281 91.09375 297.410156 95.515625 L 279.542969 116.765625 C 270.140625 113.011719 260.605469 109.929688 251.066406 107.382812 L 257.984375 88.480469 C 260 82.984375 257.179688 76.882812 251.671875 74.941406 C 246.164062 72.929688 240.054688 75.746094 238.105469 81.242188 L 230.25 102.824219 C 220.375 101.148438 210.503906 100.074219 200.496094 99.671875 L 200.496094 74.070312 C 200.496094 68.238281 195.726562 63.476562 189.882812 63.476562 C 184.042969 63.476562 179.273438 68.238281 179.273438 74.070312 L 179.273438 99.738281 C 168.996094 100.210938 159.058594 101.347656 149.585938 102.957031 L 141.664062 81.171875 C 139.648438 75.675781 133.535156 72.863281 128.097656 74.871094 C 122.589844 76.882812 119.769531 82.917969 121.78125 88.414062 L 128.699219 107.449219 C 118.558594 110.0625 108.953125 113.210938 100.089844 116.632812 L 82.292969 95.449219 C 78.53125 90.960938 71.816406 90.355469 67.316406 94.175781 C 62.816406 97.929688 62.210938 104.632812 66.039062 109.125 L 79.738281 125.480469 C 72.554688 128.898438 66.039062 132.449219 60.261719 135.800781 L 36.285156 121.859375 C 31.25 118.910156 24.734375 120.652344 21.78125 125.679688 C 18.824219 130.707031 20.570312 137.207031 25.609375 140.15625 L 40.179688 148.671875 C 32.390625 154.167969 27.890625 158.054688 27.21875 158.65625 C 24.867188 160.734375 23.527344 163.820312 23.660156 166.96875 C 23.792969 170.117188 25.273438 173.066406 27.824219 175.011719 C 78.867188 213.953125 133.132812 233.726562 189.078125 233.726562 C 284.246094 233.726562 349.726562 176.957031 352.480469 174.542969 C 354.832031 172.464844 356.175781 169.382812 356.042969 166.230469 C 355.972656 163.082031 354.496094 160.132812 351.945312 158.1875 Z M 189.882812 209.597656 C 166.578125 209.597656 147.640625 190.695312 147.640625 167.4375 C 147.640625 144.179688 166.578125 125.277344 189.882812 125.277344 C 213.1875 125.277344 232.128906 144.179688 232.128906 167.4375 C 232.128906 190.695312 213.1875 209.597656 189.882812 209.597656 Z M 141.730469 126.28125 C 132.191406 137.34375 126.417969 151.753906 126.417969 167.4375 C 126.417969 182.316406 131.65625 195.992188 140.253906 206.851562 C 110.097656 199.8125 80.546875 186.339844 51.933594 166.367188 C 67.582031 155.304688 99.550781 135.800781 141.730469 126.28125 Z M 239.785156 206.515625 C 248.246094 195.722656 253.417969 182.183594 253.417969 167.4375 C 253.417969 151.550781 247.507812 137.074219 237.769531 125.949219 C 268.53125 132.851562 298.617188 146.457031 327.832031 166.835938 C 312.320312 177.691406 280.953125 196.796875 239.785156 206.515625 Z M 239.785156 206.515625 "/>
</g>
</g>
</svg>
